<mxfile host="65bd71144e">
    <diagram id="HIP3nbAZw_EuaXWnEj3U" name="Page-1">
        <mxGraphModel dx="606" dy="563" grid="1" gridSize="10" guides="1" tooltips="1" connect="1" arrows="1" fold="1" page="1" pageScale="1" pageWidth="850" pageHeight="1100" background="#00ffff" math="0" shadow="0">
            <root>
                <mxCell id="0"/>
                <mxCell id="1" parent="0"/>
                <mxCell id="7" value="&lt;font color=&quot;#ff0000&quot; style=&quot;font-size: 24px;&quot;&gt;Number Guessing Game&lt;/font&gt;" style="swimlane;whiteSpace=wrap;html=1;startSize=50;fillColor=#ffff00;" parent="1" vertex="1">
                    <mxGeometry x="40" y="40" width="1019" height="590" as="geometry"/>
                </mxCell>
                <mxCell id="8" value="Select a number" style="text;html=1;align=left;verticalAlign=middle;resizable=0;points=[];autosize=1;strokeColor=none;fillColor=none;fontSize=24;fontColor=#000000;" parent="7" vertex="1">
                    <mxGeometry x="30" y="85" width="200" height="40" as="geometry"/>
                </mxCell>
                <mxCell id="12" value="4" style="rounded=1;whiteSpace=wrap;html=1;fontFamily=Helvetica;fontSize=24;fontColor=#000000;fillColor=none;strokeWidth=5;strokeColor=#000000;" parent="7" vertex="1">
                    <mxGeometry x="40" y="160" width="170" height="40" as="geometry"/>
                </mxCell>
                <mxCell id="13" value="Guess" style="rounded=1;whiteSpace=wrap;html=1;fontFamily=Helvetica;fontSize=24;fontColor=#000000;fillColor=none;strokeWidth=5;strokeColor=#000000;" parent="7" vertex="1">
                    <mxGeometry x="40" y="250" width="150" height="40" as="geometry"/>
                </mxCell>
                <mxCell id="16" value="" style="triangle;whiteSpace=wrap;html=1;rotation=90;strokeColor=none;" parent="7" vertex="1">
                    <mxGeometry x="190" y="167.75" width="10" height="24.5" as="geometry"/>
                </mxCell>
                <mxCell id="31" value="You Are Correct! The Number Was 4!" style="text;html=1;align=left;verticalAlign=middle;resizable=0;points=[];autosize=1;strokeColor=none;fillColor=none;fontSize=24;fontColor=#000000;" parent="7" vertex="1">
                    <mxGeometry x="25" y="330" width="420" height="40" as="geometry"/>
                </mxCell>
            </root>
        </mxGraphModel>
    </diagram>
</mxfile>